<?xml version="1.0" encoding="UTF-8" standalone="no"?>
<!-- Generator: Adobe Illustrator 16.0.3, SVG Export Plug-In . SVG Version: 6.00 Build 0)  -->

<svg
   xmlns:i="&amp;#38;#38;ns_ai;"
   xmlns:dc="http://purl.org/dc/elements/1.1/"
   xmlns:cc="http://creativecommons.org/ns#"
   xmlns:rdf="http://www.w3.org/1999/02/22-rdf-syntax-ns#"
   xmlns:svg="http://www.w3.org/2000/svg"
   xmlns="http://www.w3.org/2000/svg"
   xmlns:sodipodi="http://sodipodi.sourceforge.net/DTD/sodipodi-0.dtd"
   xmlns:inkscape="http://www.inkscape.org/namespaces/inkscape"
   version="1.1"
   x="0px"
   y="0px"
   width="360"
   height="360"
   viewBox="0 0 360 360"
   enable-background="new 0 0 800 800"
   xml:space="preserve"
   id="svg2"
   inkscape:version="0.91 r13725"
   sodipodi:docname="logo.svg"><metadata
     id="metadata548"><rdf:RDF><cc:Work
         rdf:about=""><dc:format>image/svg+xml</dc:format><dc:type
           rdf:resource="http://purl.org/dc/dcmitype/StillImage" /><dc:title /></cc:Work></rdf:RDF></metadata><defs
     id="defs546" /><sodipodi:namedview
     pagecolor="#ffffff"
     bordercolor="#666666"
     borderopacity="1"
     objecttolerance="10"
     gridtolerance="10"
     guidetolerance="10"
     inkscape:pageopacity="0"
     inkscape:pageshadow="2"
     inkscape:window-width="1920"
     inkscape:window-height="1156"
     id="namedview544"
     showgrid="false"
     fit-margin-top="0"
     fit-margin-left="0"
     fit-margin-right="0"
     fit-margin-bottom="0"
     inkscape:zoom="0.417193"
     inkscape:cx="287.46503"
     inkscape:cy="-196.56401"
     inkscape:window-x="0"
     inkscape:window-y="44"
     inkscape:window-maximized="1"
     inkscape:current-layer="svg2" /><path
     inkscape:connector-curvature="0"
     style="fill:#ffffff"
     id="path381"
     d="m 306.69585,335.11213 c 5.09,-0.035 9.227,-4.208 9.217,-9.303 -0.01,-5.062 -4.225,-9.248 -9.291,-9.229 -5.066,0.021 -9.246,4.237 -9.217,9.302 0.027,5.085 4.236,9.264 9.291,9.23 z" /><path
     inkscape:connector-curvature="0"
     style="fill:#ffffff"
     id="path383"
     d="m 89.214854,155.25113 10.609,9.812 c 0.214996,-0.162 0.460996,-0.348 0.688996,-0.549 20.543,-18.001 43.98,-33.619 69.662,-46.423 32.912,-16.40399 60.969,-25.001991 88.295,-27.057991 2.504,-0.188 4.811,-0.279 7.051,-0.279 9.105,0 16.873,1.591 23.744,4.864 7.635,3.636 11.473,9.740991 11.404,18.145991 -0.053,6.609 -1.955,13.229 -5.812,20.239 -2.68,4.868 -5.713,9.68 -8.646,14.332 -1.248,1.979 -2.502,3.969 -3.744,5.982 l 10.135,9.65 c 8.092,-10.235 16.82,-22.731 20.846,-38.001 0.467,-1.765 0.861,-3.586 1.244,-5.348 0.174,-0.804 0.348,-1.606 0.529,-2.408 l 0,-8.887 c -0.049,-0.148 -0.102,-0.297 -0.154,-0.444 -0.141,-0.387 -0.285,-0.787 -0.357,-1.216 -2.037,-12.212991 -8.967,-20.777991 -21.184,-26.185991 -7.824,-3.462 -16.289,-4.355 -23.535,-4.772 -2.264,-0.13 -4.576,-0.196 -6.877,-0.196 -11.945,0 -24.328,1.727 -37.859,5.278 -46.736,12.272 -90.896,35.553991 -131.251996,69.196991 -1.098,0.917 -2.182,1.903 -3.332,2.947 -0.465,0.425 -0.948,0.863 -1.456,1.32 z" /><path
     inkscape:connector-curvature="0"
     style="fill:#ffffff"
     id="path385"
     d="m 118.26585,121.01513 c 2.992,-2.037 5.816,-3.961 8.797,-5.561 3.58,-1.923 4.771,-4.586 5.459,-7.993 4.053,-20.110991 9.557,-35.939991 17.318,-49.815991 4.494,-8.033 9.088,-13.791 14.455,-18.119 9.002,-7.259 18.375,-7.266 27.412,-0.017 5.564,4.462 10.137,10.14 13.98,17.356 2.211,4.151 4.197,8.308 6.303,12.707 0.855,1.791 1.719,3.595 2.602,5.408 l 14.334,-3.655 c -1.174,-2.378 -2.311,-4.763 -3.412,-7.074 -2.658,-5.585 -5.172,-10.859 -8.139,-15.979 -9.824,-16.947 -20.699,-25.812 -35.26,-28.744 l -8.322,0.01 c -12.096,2.398 -22.07,9.437 -30.395,21.507 -3.602,5.219 -6.787,10.571 -9.471,15.906 -7.41,14.732 -12.738,31.635 -16.773,53.191991 -0.568,3.039 -1.053,6.101 -1.566,9.342 -0.193,1.218 -0.391,2.462 -0.598,3.74 1.132,-0.75 2.218,-1.49 3.276,-2.21 z" /><path
     inkscape:connector-curvature="0"
     style="fill:#ffffff"
     id="path387"
     d="m 105.42785,254.22313 c -3.225,0.31 -6.270996,0.602 -9.351996,0.754 -1.867,0.093 -3.594,0.139 -5.277,0.139 -7.129,0 -13.34,-0.867 -18.904,-2.646 -0.795,-0.254 -1.576,-0.526 -2.346,-0.817 -11.328,-4.29 -16.076,-12.875 -13.732,-24.827 2.135,-10.872 7.631,-19.988 13.254,-28.221 1.115,-1.634 2.314,-3.259 3.473,-4.83 0.453,-0.616 0.91,-1.233 1.365,-1.857 l -10.357,-10.004 c -7.527,9.307 -16.645,21.933 -20.824,37.338 -3.191,11.767 -2.23,22.453 2.783,30.906 5.008,8.446 13.908,14.409 25.738,17.245 6.105,1.465 12.57,2.177 19.76,2.177 3.754,-10e-4 7.688,-0.192 12.022996,-0.588 2.494,-0.227 4.928,-0.557 7.504,-0.906 0.973,-0.132 1.951,-0.265 2.936,-0.392 l -3.898,-13.857 c -1.415,0.124 -2.792,0.256 -4.146,0.386 z" /><path
     inkscape:connector-curvature="0"
     style="fill:#ffffff"
     id="path389"
     d="m 90.798854,255.11513 c 1.684,0 3.41,-0.046 5.277,-0.139 -1.866,0.093 -3.593,0.139 -5.277,0.139 z" /><path
     inkscape:connector-curvature="0"
     style="fill:#ffffff"
     id="path391"
     d="m 71.894854,252.47013 c 5.564,1.778 11.775,2.646 18.904,2.646 -7.127,-0.001 -13.339,-0.868 -18.904,-2.646 z" /><path
     inkscape:connector-curvature="0"
     style="fill:#ffffff"
     id="path393"
     d="m 91.007854,269.57913 c -7.189,0 -13.654,-0.712 -19.76,-2.177 6.106,1.465 12.571,2.177 19.76,2.177 z" /><path
     inkscape:connector-curvature="0"
     style="fill:#ffffff"
     id="path395"
     d="m 103.03185,268.99113 c -4.335996,0.396 -8.269996,0.587 -12.022996,0.588 3.753,0 7.685,-0.192 12.022996,-0.588 z" /><path
     inkscape:connector-curvature="0"
     style="fill:#ffffff"
     id="path397"
     d="m 216.19185,131.16013 c -0.625,-4.189 -1.227,-8.218 -1.867,-12.238 -0.326,-2.036 -5.861,-6.224 -8.229,-6.224 -0.156,0 -0.291,0.02 -0.402,0.058 -4.172,1.46 -8.242,3.096 -12.551,4.827 -1.42,0.57 -2.855,1.146 -4.316,1.727 l 28,16.088 -0.635,-4.238 z" /><path
     inkscape:connector-curvature="0"
     style="fill:#ffffff"
     id="path399"
     d="m 125.60785,156.07313 c -0.338,0.264 -0.668,0.525 -1,0.788 -0.463,0.366 -0.936,0.736 -1.393,1.099 -2.838,2.248 -5.516,4.371 -8.346,6.353 -2.75,1.927 -3.779,4.095 -3.336,7.03 0.102,0.675 0.096,1.436 0.09,2.17 -0.01,1.219 -0.02,2.479 0.488,2.946 3.336,3.059 6.891,5.851 10.654,8.807 0.605,0.477 1.227,0.968 1.842,1.452 0.334,0.264 0.664,0.523 1,0.789 0.188,0.148 0.369,0.29 0.557,0.439 l 0,-32.312 c -0.189,0.148 -0.369,0.291 -0.556,0.439 z" /><path
     inkscape:connector-curvature="0"
     style="fill:#ffffff"
     id="path401"
     d="m 151.98285,100.84014 0.104,-0.053 c 3.387,-1.754001 6.783,-3.483001 10.385,-5.316001 l 4.047,-2.062 -17.232,-6.35 -3.984,13.866001 c 1.803,0.81 2.684,1.17 3.451,1.17 0.584,0 1.174,-0.223 2.061,-0.658 0.34,-0.169 0.721,-0.365 1.168,-0.597 z" /><path
     inkscape:connector-curvature="0"
     style="fill:#ffffff"
     id="path403"
     d="m 150.81285,101.43614 c 0.342,-0.168 0.723,-0.364 1.172,-0.597 l 0.102,-0.053 -0.104,0.053 c -0.447,0.233 -0.828,0.429 -1.17,0.597 z" /><path
     inkscape:connector-curvature="0"
     style="fill:#ffffff"
     id="path405"
     d="m 266.77785,190.88113 -10.314,-9.723 c -0.9,2.513 -2.059,14.3 -1.457,19.737 l 11.771,-10.014 z" /><path
     inkscape:connector-curvature="0"
     style="fill:#ffffff"
     id="path407"
     d="m 146.40085,244.68813 c -0.344,0 -0.562,0.08 -0.627,0.134 -0.129,0.123 -0.217,0.812 -0.078,1.328 0.848,3.195 1.752,6.407 2.709,9.809 l 0.814,2.899 14.725,-5.297 -2.984,-1.559 c -4.799,-2.507 -9.33,-4.874 -13.859,-7.181 -0.163,-0.082 -0.431,-0.133 -0.7,-0.133 z" /><path
     inkscape:connector-curvature="0"
     style="fill:#ffffff"
     id="path409"
     d="m 178.01785,182.25313 c 5.09,-0.035 9.227,-4.207 9.217,-9.303 -0.008,-5.061 -4.223,-9.248 -9.291,-9.229 -5.066,0.021 -9.244,4.238 -9.217,9.303 0.029,5.084 4.236,9.264 9.291,9.229 z" /><path
     inkscape:connector-curvature="0"
     style="fill:#ffffff"
     id="path411"
     d="m 178.66685,137.26513 c 10.389,0 20.699,4.453 27.85,13.074 6.838,8.24 9.393,18.624 7.93,28.444 0.682,4.709 4.068,13.639 16.732,28.898 0,0 39.695,50.833 67.607,86.683 1.363,1.533 6.5,6.911 11.957,8.765 4.92,0.979 9.547,3.578 13.004,7.74 7.998,9.641 6.668,23.926 -2.971,31.917 -4.232,3.516 -9.361,5.229 -14.461,5.229 -6.51,0 -12.973,-2.793 -17.459,-8.197 -3.123,-3.762 -4.801,-8.235 -5.139,-12.764 l -0.014,0.019 c 0.004,-0.188 -0.045,-0.956 -0.047,-1.136 -0.498,-5.215 -5.215,-11.978 -7.074,-14.461 l -73.916,-80.137 c -12.717,-15.323 -21.002,-20.271 -25.605,-21.787 -9.816,-0.444 -19.428,-4.869 -26.199,-13.034 -12.762,-15.37 -10.639,-38.165 4.734,-50.921 6.752,-5.6 14.934,-8.332 23.071,-8.332 m -8.434,57.243 22.721,-3.874 8.002,-21.613 -14.719,-17.732 -22.719,3.875 -7.996,21.609 14.711,17.735 m 131.273,145.051 14.541,-2.529 5.084,-13.854 -9.451,-11.331 -14.543,2.523 -5.082,13.857 9.451,11.334" /><path
     inkscape:connector-curvature="0"
     style="fill:#ffffff"
     id="path431"
     d="m 200.61585,241.28413 0.006,-0.025 c -24.418,-9.209 -48.256,-21.711 -70.979,-37.256 -24.553,-16.797 -42.628996,-33.192 -56.884996,-51.596 -8.715,-11.247 -13.768,-20.717 -16.381,-30.705 -3.068,-11.729 0.105,-20.53999 9.178,-25.481991 2.277,-1.241 4.834,-2.269 7.596,-3.054 7.576,-2.153 15.721,-2.812 25.201,-2.015 1.244,0.104 2.519996,0.217 3.804996,0.332 1.402,0.123 2.803,0.242 4.209,0.368 l 3.176,0.281 3.846,-13.919 c -0.947,-0.121 -1.893,-0.245 -2.83,-0.37 -2.537,-0.337 -4.934,-0.656 -7.25,-0.857 -4.688996,-0.406 -8.802996,-0.604 -12.577996,-0.604 -8.74,0 -16.342,1.076 -23.24,3.29 -14.58,4.68 -23.049,13.281 -25.893,26.296991 -1.943,8.9 -0.568,18.38 4.328,29.833 6.098,14.267 15.623,27.692 29.977,42.251 31.706996,32.162 69.878996,56.911 116.698996,75.662 3.182,1.274 6.383,2.416 9.771,3.624 1.434,0.511 2.889,1.029 4.369,1.568 l 2.396,-8.365 -8.521,-9.258 z" /><path
     inkscape:connector-curvature="0"
     style="fill:#ffffff"
     id="path433"
     d="m 315.10985,227.63013 c -0.146,-0.262 -0.314,-0.56 -0.359,-0.905 -0.99,-8.005 -3.834,-16.142 -8.688,-24.875 -7.945,-14.297 -18.83,-27.683 -34.252,-42.126 -3.812,-3.572 -7.723,-6.949 -11.863,-10.523 -1.678,-1.448 -3.377,-2.915 -5.096,-4.419 -0.006,0.032 -0.012,0.062 -0.018,0.092 -0.062,0.355 -0.096,0.551 -0.09,0.713 l 0.148,3.794 c 0.176,4.559 0.359,9.272 0.67,13.896 0.047,0.706 0.615,1.672 1.52,2.583 2.135,2.144 4.346,4.286 6.484,6.358 3.807,3.687 7.742,7.5 11.389,11.467 11.611,12.634 19.076,24.245 23.488,36.543 2.049,5.705 2.707,10.802 2.012,15.581 -1.146,7.896 -6.145,13.235 -15.281,16.322 -2.455,0.829 -5.002,1.474 -7.656,1.956 l 9.738,12.6 c 1.551,-0.468 3.08,-0.975 4.574,-1.562 12.387,-4.858 19.754,-12.956 22.521,-24.758 l 0.869,-3.686 0,-8.847 c -0.034,-0.068 -0.071,-0.136 -0.11,-0.204 z" /><g
     style="fill:#ffffff"
     id="g435"
     transform="translate(-215.39315,-165.25587)"><path
       inkscape:connector-curvature="0"
       style="fill:#ffffff"
       id="path437"
       d="m 439.345,274.729 c 0.58,4.945 1.223,9.971 1.846,14.831 1.416,11.057 2.879,22.489 3.713,33.785 0.807,10.944 0.859,22.254 0.164,34.1 l 13,16.818 c 0.334,-3.384 0.643,-6.817 0.902,-10.349 1.854,-25.214 1.066,-50.093 -2.342,-73.945 -0.709,-4.964 -1.549,-9.816 -2.439,-14.955 -0.377,-2.185 -0.758,-4.387 -1.133,-6.617 l -14.16,3.555 c 0.043,0.257 0.086,0.5 0.127,0.734 0.13,0.742 0.244,1.39 0.322,2.043 z" /><path
       inkscape:connector-curvature="0"
       style="fill:#ffffff"
       id="path439"
       d="m 433.437,425.474 c -2.322,7.348 -4.98,14.184 -8.043,20.678 -3.967,8.416 -9.191,17.993 -17.877,25.219 -9.297,7.733 -19.082,7.701 -28.365,-0.092 -5.934,-4.982 -10.92,-11.633 -15.691,-20.929 -6.629,-12.926 -11.459,-27.311 -15.66,-46.642 l -0.072,-0.342 c -0.174,-0.828 -0.412,-1.962 -0.893,-2.284 -4.152,-2.786 -8.357,-5.448 -12.807,-8.267 -1.068,-0.677 -2.146,-1.359 -3.238,-2.054 0.164,0.969 0.32,1.911 0.475,2.834 0.434,2.596 0.842,5.047 1.303,7.478 4.703,24.702 10.705,42.76 19.463,58.551 7.541,13.604 17.859,28.05 37.209,32.08 l 8.318,0 c 17.949,-3.632 27.887,-16.568 35.24,-28.748 1.953,-3.234 3.717,-6.507 5.244,-9.726 2.389,-5.035 4.557,-10.249 6.533,-15.655 l -11.139,-12.101 z" /></g><i:pgf
     id="adobe_illustrator_pgf" /></svg>